<svg data-v-0dd9719b="" version="1.0" xmlns="http://www.w3.org/2000/svg" xmlns:xlink="http://www.w3.org/1999/xlink" width="100%" height="100%" viewBox="0 0 340.000000 250.000000" preserveAspectRatio="xMidYMid meet" color-interpolation-filters="sRGB" style="margin: auto;"> <rect data-v-0dd9719b="" x="0" y="0" width="100%" height="100%" fill="#fff" fill-opacity="1" class="background"></rect> <rect data-v-0dd9719b="" x="0" y="0" width="100%" height="100%" fill="url(#watermark)" fill-opacity="1" class="watermarklayer"></rect> <g data-v-0dd9719b="" fill="#96bf24" class="icon-text-wrapper icon-svg-group iconsvg" transform="translate(48.00499725341797,84.58452987670898)"><g class="iconsvg-imagesvg" transform="translate(0,0)"><g><rect fill="#96bf24" fill-opacity="0" stroke-width="2" x="0" y="0" width="60" height="80.83094208463" class="image-rect"></rect> <svg x="0" y="0" width="60" height="80.83094208463" filtersec="colorsb2990141451" class="image-svg-svg primary" style="overflow: visible;"><svg xmlns="http://www.w3.org/2000/svg" viewBox="0 0 48.10069274902344 64.80000305175781"><g><g><path d="M21.205 48.072a18.07 18.07 0 0 0 5.095-3.687 16.588 16.588 0 0 0 3.381-5.225 16.44 16.44 0 0 0 1.229-6.322 17.681 17.681 0 0 0-1.232-6.538l1.977-.845a17.818 17.818 0 0 0-3.048-4.686 18.613 18.613 0 0 0-5.092-3.952 17.1 17.1 0 0 0-6.322-1.887v29.546l-2.354-.006v5.4a18.55 18.55 0 0 0 6.366-1.798z" fill="none"></path><path d="M45.686 20.458a32.918 32.918 0 0 0-16.42-17.3A31.628 31.628 0 0 0 17.193.087V0H2.354v4.781h12.485V44.47l2.354.006V14.927a17.1 17.1 0 0 1 6.322 1.887 18.613 18.613 0 0 1 5.092 3.952 17.818 17.818 0 0 1 3.048 4.686l11.677-4.994a31.874 31.874 0 0 1 2.414 12.38H48.1a31.874 31.874 0 0 0-2.414-12.38z" fill="#fabe00"></path><path d="M32.032 26.3c-.115-.29-.25-.565-.377-.845l-1.977.845a17.681 17.681 0 0 1 1.229 6.541 16.44 16.44 0 0 1-1.229 6.322 16.588 16.588 0 0 1-3.378 5.222 18.07 18.07 0 0 1-5.092 3.687 18.55 18.55 0 0 1-6.366 1.8v-5.4l-12.488-.033V4.781H0V64.8h14.839a33.066 33.066 0 0 0 12.205-2.942 32.355 32.355 0 0 0 9.79-6.892A31.849 31.849 0 0 0 43.376 45a31.174 31.174 0 0 0 2.37-12.161H33.261a17.681 17.681 0 0 0-1.229-6.539z" fill="#96bf24"></path><path fill="#fabe00" d="M14.839 44.47V4.777l-12.485.004v39.658l12.485.031zM31.655 25.452c.127.28.262.555.377.845a17.681 17.681 0 0 1 1.229 6.541h12.485a31.874 31.874 0 0 0-2.414-12.38z"></path><path fill="#f3e800" d="M14.839 44.47V4.777l-12.485.004v39.658l12.485.031zM31.655 25.452c.127.28.262.555.377.845a17.681 17.681 0 0 1 1.229 6.541h12.485a31.874 31.874 0 0 0-2.414-12.38z"></path></g></g></svg></svg> <!----></g></g> <g transform="translate(67,12.086406707763672)"><g data-gra="path-name" fill-rule="" class="tp-name iconsvg-namesvg" transform="translate(0,0)"><g transform="scale(1)"><g><path d="M42.12-23.22L42.12-23.22 24.3-23.22Q27.18-7.74 43.88-0.67L43.88-0.67 43.78-0.18Q40.37 0.45 39.64 3.87L39.64 3.87Q26.14-3.96 23.54-22.59L23.54-22.59Q23.13-19.17 22.32-16.34L22.32-16.34Q21.55-13.54 19.98-10.57L19.98-10.57Q18.4-7.65 16.06-5.17L16.06-5.17Q13.77-2.75 10.21-0.4 6.66 1.93 1.98 3.87L1.98 3.87 1.48 3.15Q6.17 0.49 9.45-2.56L9.45-2.56Q12.78-5.63 14.71-9L14.71-9Q16.65-12.42 17.64-15.75L17.64-15.75Q18.63-19.13 19.04-23.22L19.04-23.22 2.34-23.22 1.93-24.52 19.13-24.52Q19.44-28.21 19.44-37.84L19.44-37.84 24.21-37.21Q24.03-27.49 23.76-24.52L23.76-24.52 35.14-24.52Q35.28-28.21 39.38-28.21L39.38-28.21Q43.52-27.63 43.38-23.94L43.38-23.94Q43.2-23.22 42.12-23.22ZM64.89-29.29L59.13-29.29 58.77-30.6 65.43-30.6Q67.28-35.46 67.95-37.89L67.95-37.89 71.69-36.09Q71.01-33.34 69.88-30.6L69.88-30.6 79.74-30.6Q79.74-34.02 83.34-34.02L83.34-34.02Q86.98-33.44 86.98-30.02L86.98-30.02Q86.81-29.29 85.72-29.29L85.72-29.29 69.39-29.29Q67-23.45 65.34-19.71L65.34-19.71 71.55-19.71 71.55-26.46 75.73-25.88 75.73-19.71 78.8-19.71Q78.8-22.95 82.17-22.95L82.17-22.95Q85.55-22.41 85.55-19.17L85.55-19.17Q85.37-18.45 84.38-18.45L84.38-18.45 75.73-18.45 75.73-11.61 80.91-11.61Q80.95-14.89 84.47-14.89L84.47-14.89Q87.97-14.31 87.93-11.03L87.93-11.03Q87.75-10.3 86.67-10.3L86.67-10.3 75.73-10.3 75.73-3.06Q75.73-2.75 74.56-2.29L74.56-2.29Q73.44-1.89 72.31-1.89L72.31-1.89 71.55-1.89 71.55-10.3 58.68-10.3 58.32-11.61 71.55-11.61 71.55-18.45 65.16-18.45Q64.89-16.47 61.88-16.47L61.88-16.47Q58.91-17.5 59.17-19.48L59.17-19.48Q60.08-20.11 61.11-20.52L61.11-20.52Q62.73-23.85 64.89-29.29L64.89-29.29ZM48.28-36.9L48.28-36.9 48.83-37.17Q54.86-34.78 56.38-31L56.38-31Q57.28-28.71 56.12-27.4L56.12-27.4Q54.99-26.14 53.33-27.27L53.33-27.27Q53.19-27.36 53.05-27.45L53.05-27.45Q52.16-31.5 48.28-36.9ZM56.02-19.98L56.02-19.98 56.25-5.54Q59.09-2.7 63.05-1.67L63.05-1.67Q67.05-0.67 74.2-0.67L74.2-0.67Q82.53-0.67 88.78-0.94L88.78-0.94 88.78-0.4Q86.22 0.14 85.86 3.06L85.86 3.06 72.94 3.06Q66.24 3.06 62.46 1.44L62.46 1.44Q58.68-0.14 55.62-4.14L55.62-4.14Q54.81-5.13 54.09-4.14L54.09-4.14Q53.69-3.38 52.02-0.85 50.35 1.67 49.68 2.83L49.68 2.83Q49.86 3.42 49.37 3.87L49.37 3.87 46.26-0.45Q47.2-1.08 49.27-2.65L49.27-2.65Q51.39-4.27 52.02-4.72L52.02-4.72 52.02-20.56 46.94-20.56 46.66-21.87 51.34-21.87Q51.39-24.79 54.9-24.79L54.9-24.79Q58.37-23.8 58.32-20.88L58.32-20.88Q57.64-20.2 56.02-19.98ZM100.03-37.98L100.03-37.98 103.55-35.05Q101.34-31.95 98.19-29.2 95.04-26.46 91.75-24.57L91.75-24.57 91.31-25.06Q93.83-27.72 96.3-31.41 98.78-35.1 100.03-37.98ZM101.34-20.56L101.34-20.56 101.34 2.38Q101.3 2.75 100.22 3.28 99.14 3.82 97.97 3.82L97.97 3.82 97.2 3.82 97.2-15.97Q94.19-12.69 91.62-10.89L91.62-10.89 91.17-11.34Q93.92-14.85 96.34-19.75L96.34-19.75Q98.82-24.66 99.99-28.71L99.99-28.71 104-26.01Q102.42-22.63 101.34-20.56ZM106.69-9.45L106.69-9.45 107.41-9.45Q108.31-6.03 108.05-3.73L108.05-3.73Q107.78-1.48 106.65-0.22L106.65-0.22Q105.97 0.58 104.72 0.54L104.72 0.54Q103.45 0.54 102.91-0.4L102.91-0.4Q102.51-1.35 102.83-2.16 103.14-2.97 104.04-3.6L104.04-3.6Q105.03-4.5 105.89-6.17L105.89-6.17Q106.74-7.88 106.69-9.45ZM125.64-5.76L126.13-5.76 126.31-1.3Q127.71-0.81 127.71 0.22L127.71 0.22Q127.71 1.48 125.95 2.02 124.2 2.56 119.34 2.56L119.34 2.56 114.7 2.56Q111.96 2.56 111.11 1.89 110.25 1.21 110.25-0.77L110.25-0.77 110.25-10.26 113.94-9.76 113.94-1.62Q113.94-1.17 114.21-1.03L114.21-1.03Q114.53-0.9 115.56-0.9L115.56-0.9 119.61-0.9Q122.67-0.9 123.21-0.94L123.21-0.94Q123.88-0.99 124.2-1.44L124.2-1.44Q124.56-2.07 125.64-5.76L125.64-5.76ZM115.69-11.43L115.69-11.43 116.14-11.7Q121.14-10.04 122.13-7.02L122.13-7.02Q122.76-5.08 121.5-4L121.5-4Q120.28-2.92 118.8-4.09L118.8-4.09Q118.71-4.18 118.62-4.27L118.62-4.27Q118.66-6.03 117.77-8.01L117.77-8.01Q116.91-10.04 115.69-11.43ZM125.41-9.54L125.41-9.54 125.91-9.86Q131.67-7.88 133.06-4.32L133.06-4.32Q133.97-2.16 132.8-0.81L132.8-0.81Q131.72 0.45 130.14-0.58L130.14-0.58Q129.96-0.67 129.82-0.81L129.82-0.81Q129.6-2.92 128.3-5.31L128.3-5.31Q127.03-7.74 125.41-9.54ZM123.34-25.88L123.34-18.18 126.77-18.18 126.77-25.88 123.34-25.88ZM113.53-25.88L109.94-25.88 109.94-18.18 113.53-18.18 113.53-25.88ZM120.15-18.18L120.15-25.88 116.69-25.88 116.69-18.18 120.15-18.18ZM130.45-25.65L130.45-25.65 130.45-16.47Q130.45-16.2 129.56-15.93L129.56-15.93Q133.02-13.32 133.56-12.87L133.56-12.87Q133.38-12.15 132.34-12.15L132.34-12.15 104.13-12.15 103.77-13.46 126.59-13.46 128.47-15.66Q127.84-15.57 127.39-15.57L127.39-15.57 126.77-15.57 126.77-16.88 109.94-16.88 109.94-15.88Q109.94-15.75 109.58-15.52 109.22-15.3 108.5-15.12 107.78-14.94 106.97-14.94L106.97-14.94 106.34-14.94 106.34-27.18 114.97-27.18Q115.02-27.36 115.69-31.36L115.69-31.36 104.22-31.36 103.86-32.67 115.88-32.67Q116.33-35.82 116.64-38.07L116.64-38.07 120.78-36.59 120.24-32.67 126.59-32.67Q126.67-35.82 130.19-35.82L130.19-35.82Q133.69-35.23 133.6-32.09L133.6-32.09Q133.43-31.36 132.44-31.36L132.44-31.36 120.02-31.36Q119.7-29.25 119.25-27.18L119.25-27.18 126.63-27.18Q126.77-29.25 129.51-29.25L129.51-29.25Q132.21-28.48 132.07-26.41L132.07-26.41Q131.63-25.83 130.45-25.65ZM170.46-22.23L170.46-32.76 161.87-32.76 161.87-22.23 170.46-22.23ZM161.87-20.93L161.87-9.72 170.46-9.72 170.46-20.93 161.87-20.93ZM170.46-8.46L161.87-8.46 161.87-6.3Q161.87-5.89 160.78-5.35 159.7-4.81 158.44-4.81L158.44-4.81 157.72-4.81 157.72-34.06 170.06-34.06Q170.28-36.41 173.52-36.41L173.52-36.41Q176.76-35.32 176.53-32.98L176.53-32.98Q176.04-32.31 174.64-32.04L174.64-32.04 174.64-7.06Q174.6-6.79 173.34-6.3L173.34-6.3Q172.13-5.8 171.09-5.8L171.09-5.8 170.46-5.8 170.46-8.46ZM175.77-7.25L176.26-7.25 176.44-2.25Q178.47-1.67 178.47-0.49L178.47-0.49Q178.47 0.63 177.39 1.17L177.39 1.17Q176.35 1.75 173.43 2.02L173.43 2.02Q170.55 2.29 164.79 2.29L164.79 2.29 157 2.29Q152.69 2.29 151.16 1.35L151.16 1.35Q149.63 0.45 149.63-2.38L149.63-2.38 149.63-26.01 146.07-26.01Q145.98-21.69 145.75-18.59L145.75-18.59Q145.57-15.52 144.99-12.01L144.99-12.01Q144.41-8.55 143.41-5.94 142.43-3.33 140.72-0.77L140.72-0.77Q139.05 1.8 136.71 3.87L136.71 3.87 136.13 3.15Q139.72-1.93 140.9-8.69L140.9-8.69Q142.06-15.48 142.11-26.01L142.11-26.01 136.98-26.01 136.57-27.31 142.11-27.31Q142.11-28.93 142.06-32.49L142.06-32.49Q142.06-36.09 142.06-38.02L142.06-38.02 146.16-37.44Q146.12-33.07 146.12-27.31L146.12-27.31 149.09-27.31Q149.31-29.7 152.59-29.7L152.59-29.7Q155.79-28.57 155.56-26.19L155.56-26.19Q154.98-25.56 153.63-25.43L153.63-25.43 153.63-3.24Q153.63-2.25 154.31-1.89L154.31-1.89Q154.98-1.57 157.14-1.57L157.14-1.57 165.06-1.57Q170.28-1.57 171.99-1.71L171.99-1.71Q173.2-1.84 173.7-2.34L173.7-2.34Q174.6-3.6 175.77-7.25L175.77-7.25Z" transform="translate(-1.4800000190734863, 38.06999969482422)"></path></g> <!----> <!----> <!----> <!----> <!----> <!----> <!----></g></g> <g data-gra="path-slogan" fill-rule="" class="tp-slogan iconsvg-slogansvg" fill="#96bf24" transform="translate(49.56500244140625,47.939998626708984)"><!----> <!----> <g transform="scale(1, 1)"><g transform="scale(1)"><path d="M4.41 0L0.94 0L0.94-8.58L4.45-8.58Q7.92-8.39 8.06-4.41L8.06-4.41Q7.88-0.09 4.41 0L4.41 0ZM4.27-7.64L2.11-7.64L2.11-0.98L4.36-0.98Q6.80-1.13 6.89-4.31L6.89-4.31Q6.84-7.55 4.27-7.64L4.27-7.64ZM15.19 0L14.34-2.48L10.88-2.48L9.98 0L8.81 0L12.05-8.58L13.36-8.58L16.45 0L15.19 0ZM12.61-7.31L11.25-3.52L13.92-3.52L12.66-7.31L12.61-7.31ZM17.48-8.58L18.66-8.58L18.66-1.03L23.02-1.03L23.02 0L17.48 0L17.48-8.58ZM24.33-8.58L25.50-8.58L25.50 0L24.33 0L24.33-8.58ZM33.14 0L32.30-2.48L28.83-2.48L27.94 0L26.77 0L30-8.58L31.31-8.58L34.41 0L33.14 0ZM30.56-7.31L29.20-3.52L31.88-3.52L30.61-7.31L30.56-7.31ZM36.84-8.58L41.16-1.64L41.16-8.58L42.28-8.58L42.28 0L40.97 0L36.61-6.94L36.56-6.94L36.56 0L35.44 0L35.44-8.58L36.84-8.58ZM50.91 0L47.44 0L47.44-8.58L50.95-8.58Q54.42-8.39 54.56-4.41L54.56-4.41Q54.38-0.09 50.91 0L50.91 0ZM50.77-7.64L48.61-7.64L48.61-0.98L50.86-0.98Q53.30-1.13 53.39-4.31L53.39-4.31Q53.34-7.55 50.77-7.64L50.77-7.64ZM57.33-1.03L62.48-1.03L62.48 0L56.16 0L56.16-8.58L62.39-8.58L62.39-7.59L57.33-7.59L57.33-4.92L62.02-4.92L62.02-3.89L57.33-3.89L57.33-1.03ZM70.73-8.58L67.83-4.41L70.88 0L69.42 0L67.08-3.52L64.73 0L63.33 0L66.42-4.41L63.52-8.58L64.97-8.58L67.13-5.30L69.33-8.58L70.73-8.58ZM77.63-3.19L77.63-8.58L78.80-8.58L78.80-3.05Q78.66 0.05 75.28 0.14L75.28 0.14Q72.14 0.05 72-2.86L72-2.86L72-8.58L73.17-8.58L73.17-3.19Q73.22-0.84 75.33-0.80L75.33-0.80Q77.63-0.84 77.63-3.19L77.63-3.19Z" transform="translate(-0.9375, 8.578125)"></path></g></g></g></g></g><defs v-gra="od"></defs></svg>